#!OML:ASF E:\motion texture\Top Level 1\Subject 1\Session 1\male.ASF
:FULLY-SPECIFIED
:DEGREES
635
root -30.9369 17.7479 5.1912 518.681 -80.0343 -511.741
lowerback 0.326954 -0.118712 1.6953
upperback 1.03382 -0.254966 3.59257
thorax 0.886777 -0.159062 2.73509
lowerneck -10.0432 -8.46486 -11.4522
upperneck 35.2579 -14.9428 7.93429
head 15.6184 -7.51238 2.64105
rclavicle -4.28381e-014 3.4191e-014
rhumerus -47.5928 -44.2084 -43.6161
rradius 20.44
rwrist 12.1195
rhand -15.5376 -37.0193
rfingers 7.12502
rthumb 10.6462 -66.7296
lclavicle -4.28381e-014 3.4191e-014
lhumerus -44.1365 35.253 57.0648
lradius 26.5216
lwrist -17.0894
lhand -17.322 25.6801
lfingers 7.12502
lthumb 8.9246 55.4713
rfemur -13.1953 1.12897 24.7148
rtibia 50.3068
rfoot 0.832326 3.20037
rtoes 6.87564
lfemur -26.5936 -6.44244 -9.42353
ltibia 25.9491
lfoot -4.78923 7.35654
ltoes -2.53415
636
root -31.0755 17.7582 5.19672 519.83 -80.1145 -512.923
lowerback 0.378983 -0.135456 1.55537
upperback 1.03113 -0.272047 3.5406
thorax 0.85562 -0.167425 2.76018
lowerneck -10.16 -8.34876 -11.3039
upperneck 35.123 -14.7037 7.85927
head 15.5208 -7.39192 2.62711
rclavicle 4.07509e-015 -9.93923e-015
rhumerus -47.9951 -44.3588 -43.0633
rradius 20.3388
rwrist 12.2224
rhand -15.5417 -37.4296
rfingers 7.12502
rthumb 10.6423 -67.1401
lclavicle 4.07509e-015 -9.93923e-015
lhumerus -43.3682 34.7504 57.8828
lradius 26.6946
lwrist -16.9251
lhand -17.3195 25.6661
lfingers 7.12502
lthumb 8.92708 55.4573
rfemur -14.1083 0.786801 24.2631
rtibia 51.7462
rfoot 1.8937 2.79742
rtoes 7.02391
lfemur -26.0718 -6.52731 -9.89273
ltibia 25.969
lfoot -5.02778 7.34655
ltoes -2.34116
637
root -31.2141 17.7689 5.20174 520.966 -80.205 -514.098
lowerback 0.427763 -0.150393 1.41995
upperback 1.02325 -0.286979 3.49171
thorax 0.820946 -0.174682 2.78598
lowerneck -10.2823 -8.23289 -11.1565
upperneck 34.9768 -14.4616 7.78363
head 15.4198 -7.26957 2.61316
rclavicle 8.44835e-015 2.54444e-014
rhumerus -48.3913 -44.5518 -42.5034
rradius 20.2254
rwrist 12.3272
rhand -15.5425 -37.8656
rfingers 7.12502
rthumb 10.6415 -67.5762
lclavicle 8.44835e-015 2.54444e-014
lhumerus -42.5768 34.2074 58.728
lradius 26.8819
lwrist -16.7536
lhand -17.3098 25.6426
lfingers 7.12502
lthumb 8.93644 55.4334
rfemur -15.0425 0.438916 23.8207
rtibia 53.1503
rfoot 2.88082 2.35634
rtoes 7.16551
lfemur -25.5252 -6.61247 -10.3663
ltibia 25.9511
lfoot -5.26915 7.32458
ltoes -2.17625
638
root -31.3526 17.7797 5.20617 522.094 -80.3058 -515.271
lowerback 0.472866 -0.163769 1.28811
upperback 1.01112 -0.300123 3.44585
thorax 0.783983 -0.181014 2.81293
lowerneck -10.4116 -8.11773 -11.0099
upperneck 34.8199 -14.217 7.70673
head 15.3164 -7.14563 2.59876
rclavicle -4.37326e-015 -3.06128e-014
rhumerus -48.7852 -44.8009 -41.9278
rradius 20.098
rwrist 12.4407
rhand -15.5389 -38.3147
rfingers 7.12502
rthumb 10.6449 -68.0251
lclavicle -4.37326e-015 -3.06128e-014
lhumerus -41.7652 33.6261 59.5959
lradius 27.0841
lwrist -16.575
lhand -17.2939 25.6114
lfingers 7.12502
lthumb 8.95177 55.4015
rfemur -15.9943 0.0859345 23.3882
rtibia 54.5101
rfoot 3.78488 1.88255
rtoes 7.2929
lfemur -24.9545 -6.7002 -10.842
ltibia 25.8968
lfoot -5.51593 7.28587
ltoes -2.0118
639
root -31.491 17.7907 5.20999 523.208 -80.4158 -516.433
lowerback 0.513609 -0.175411 1.16237
upperback 0.994558 -0.311265 3.40326
thorax 0.744873 -0.186293 2.83987
lowerneck -10.5427 -8.0033 -10.8655
upperneck 34.6481 -13.9707 7.63143
head 15.2078 -7.02046 2.58542
rclavicle 1.48095e-014 -1.59028e-015
rhumerus -49.1707 -45.0975 -41.3487
rradius 19.962
rwrist 12.5479
rhand -15.5265 -38.7838
rfingers 7.12502
rthumb 10.6569 -68.4935
lclavicle 1.48095e-014 -1.59028e-015
lhumerus -40.9375 33.0076 60.4807
lradius 27.3004
lwrist -16.3907
lhand -17.2745 25.5733
lfingers 7.12502
lthumb 8.97049 55.3626
rfemur -16.9608 -0.271302 22.9687
rtibia 55.8168
rfoot 4.59679 1.38223
rtoes 7.40433
lfemur -24.3616 -6.79108 -11.316
ltibia 25.8096
lfoot -5.7756 7.22953
ltoes -1.8389
640
root -31.6291 17.8017 5.21312 524.311 -80.5342 -517.589
lowerback 0.550466 -0.185756 1.04161
upperback 0.973974 -0.320962 3.36407
thorax 0.703804 -0.190804 2.86754
lowerneck -10.6731 -7.88905 -10.7246
upperneck 34.4583 -13.7223 7.56006
head 15.0925 -6.89387 2.57453
rclavicle -2.87244e-014 1.59028e-015
rhumerus -49.5438 -45.4407 -40.7717
rradius 19.8195
rwrist 12.6442
rhand -15.5079 -39.2715
rfingers 7.12502
rthumb 10.6748 -68.9803
lclavicle -2.87244e-014 1.59028e-015
lhumerus -40.0988 32.3553 61.3758
lradius 27.5311
lwrist -16.2037
lhand -17.2485 25.5286
lfingers 7.12502
lthumb 8.99557 55.3168
rfemur -17.9382 -0.630542 22.5632
rtibia 57.0618
rfoot 5.31273 0.858474
rtoes 7.50018
lfemur -23.7478 -6.88176 -11.7872
ltibia 25.6943
lfoot -6.04832 7.15739
ltoes -1.68649
641
root -31.767 17.8127 5.21552 525.401 -80.6616 -518.734
lowerback 0.583382 -0.195167 0.92687
upperback 0.949492 -0.329688 3.32827
thorax 0.66094 -0.194774 2.89535
lowerneck -10.8066 -7.77568 -10.5853
upperneck 34.2552 -13.4727 7.48901
head 14.9733 -6.76634 2.56389
rclavicle 2.69353e-014 -2.34566e-014
rhumerus -49.9041 -45.8338 -40.1971
rradius 19.6716
rwrist 12.7326
rhand -15.4821 -39.7788
rfingers 7.12502
rthumb 10.6997 -69.4864
lclavicle 2.69353e-014 -2.34566e-014
lhumerus -39.2531 31.6767 62.2734
lradius 27.7727
lwrist -16.0215
lhand -17.2193 25.475
lfingers 7.12502
lthumb 9.02371 55.262
rfemur -18.921 -0.992484 22.1727
rtibia 58.2352
rfoot 5.92752 0.315919
rtoes 7.58972
lfemur -23.1134 -6.97096 -12.2544
ltibia 25.5522
lfoot -6.32576 7.07716
ltoes -1.56925
642
root -31.9046 17.8235 5.21714 526.474 -80.7944 -519.867
lowerback 0.612264 -0.203031 0.81895
upperback 0.920912 -0.336613 3.29627
thorax 0.616083 -0.197783 2.92326
lowerneck -10.9386 -7.66295 -10.4503
upperneck 34.0347 -13.2227 7.42297
head 14.8481 -6.63817 2.55594
rclavicle 9.93923e-017 -1.98785e-014
rhumerus -50.2401 -46.2663 -39.6432
rradius 19.5236
rwrist 12.7948
rhand -15.4512 -40.3028
rfingers 7.12502
rthumb 10.7296 -70.0088
lclavicle 9.93923e-017 -1.98785e-014
lhumerus -38.4047 30.9726 63.169
lradius 28.0262
lwrist -15.8432
lhand -17.181 25.419
lfingers 7.12502
lthumb 9.06064 55.2044
rfemur -19.9072 -1.35269 21.8
rtibia 59.3294
rfoot 6.44156 -0.244252
rtoes 7.66777
lfemur -22.4609 -7.0543 -12.7134
ltibia 25.3847
lfoot -6.60321 6.99949
ltoes -1.49042
643
root -32.0419 17.8341 5.21797 527.534 -80.9317 -520.991
lowerback 0.637402 -0.209706 0.717601
upperback 0.889325 -0.342223 3.26803
thorax 0.5702 -0.200086 2.95137
lowerneck -11.0734 -7.55088 -10.3173
upperneck 33.7993 -12.9718 7.3584
head 14.7185 -6.50904 2.54877
rclavicle 4.05521e-014 -3.81667e-014
rhumerus -50.5472 -46.7398 -39.1134
rradius 19.3762
rwrist 12.8332
rhand -15.4112 -40.8432
rfingers 7.12502
rthumb 10.7681 -70.5472
lclavicle 4.05521e-014 -3.81667e-014
lhumerus -37.5558 30.2473 64.0588
lradius 28.2899
lwrist -15.6688
lhand -17.1392 25.3607
lfingers 7.12502
lthumb 9.10102 55.1443
rfemur -20.8917 -1.71093 21.4442
rtibia 60.3361
rfoot 6.85151 -0.817754
rtoes 7.72662
lfemur -21.789 -7.13007 -13.1644
ltibia 25.1912
lfoot -6.881 6.92591
ltoes -1.45397
644
root -32.1789 17.8442 5.21796 528.593 -81.0712 -522.118
lowerback 0.658136 -0.215089 0.620734
upperback 0.854591 -0.346344 3.24289
thorax 0.52351 -0.201592 2.98016
lowerneck -11.2071 -7.43888 -10.1865
upperneck 33.5469 -12.7198 7.29695
head 14.5829 -6.37899 2.54321
rclavicle -2.52457e-014 1.59028e-015
rhumerus -50.8122 -47.2436 -38.6285
rradius 19.2345
rwrist 12.8317
rhand -15.3675 -41.4056
rfingers 7.12502
rthumb 10.8102 -71.1074
lclavicle -2.52457e-014 1.59028e-015
lhumerus -36.7119 29.5009 64.9386
lradius 28.5663
lwrist -15.4964
lhand -17.0912 25.3011
lfingers 7.12502
lthumb 9.14732 55.0827
rfemur -21.8702 -2.0634 21.1041
rtibia 61.246
rfoot 7.16163 -1.40423
rtoes 7.76656
lfemur -21.0993 -7.19499 -13.607
ltibia 24.9723
lfoot -7.15892 6.85288
ltoes -1.46763
645
root -32.3154 17.8539 5.21704 529.659 -81.2121 -523.254
lowerback 0.676332 -0.218997 0.527205
upperback 0.815527 -0.348618 3.2208
thorax 0.473738 -0.202101 3.01023
lowerneck -11.336 -7.32721 -10.0603
upperneck 33.277 -12.4681 7.2404
head 14.4411 -6.24881 2.54032
rclavicle -3.06128e-014 1.11319e-014
rhumerus -51.0239 -47.7707 -38.2026
rradius 19.1016
rwrist 12.7799
rhand -15.322 -41.9955
rfingers 7.12502
rthumb 10.8542 -71.695
lclavicle -3.06128e-014 1.11319e-014
lhumerus -35.8772 28.7371 65.8039
lradius 28.8525
lwrist -15.3277
lhand -17.041 25.2416
lfingers 7.12502
lthumb 9.19577 55.021
rfemur -22.8382 -2.40828 20.7783
rtibia 62.0511
rfoot 7.37197 -2.00088
rtoes 7.79517
lfemur -20.3932 -7.24679 -14.0412
ltibia 24.7283
lfoot -7.43411 6.77382
ltoes -1.51543
646
root -32.4516 17.8631 5.2152 530.749 -81.3547 -524.417
lowerback 0.689312 -0.221562 0.434165
upperback 0.774289 -0.349309 3.2005
thorax 0.424605 -0.201769 3.04188
lowerneck -11.4645 -7.21673 -9.93883
upperneck 32.9897 -12.2177 7.19004
head 14.2943 -6.11862 2.54018
rclavicle 1.98785e-015 -1.43125e-014
rhumerus -51.1733 -48.3248 -37.8444
rradius 18.978
rwrist 12.6771
rhand -15.2756 -42.6047
rfingers 7.12502
rthumb 10.8989 -72.3019
lclavicle 1.98785e-015 -1.43125e-014
lhumerus -35.0497 27.9591 66.6536
lradius 29.1471
lwrist -15.1627
lhand -16.9882 25.1773
lfingers 7.12502
lthumb 9.24675 54.9545
rfemur -23.7897 -2.74491 20.4627
rtibia 62.739
rfoot 7.48611 -2.60386
rtoes 7.80971
lfemur -19.6719 -7.28456 -14.4694
ltibia 24.4593
lfoot -7.70487 6.68535
ltoes -1.59151
647
root -32.5873 17.8717 5.21236 531.864 -81.4968 -525.606
lowerback 0.699463 -0.222849 0.341207
upperback 0.729412 -0.348402 3.1825
thorax 0.373272 -0.200566 3.07585
lowerneck -11.5883 -7.10609 -9.81847
upperneck 32.6826 -11.9665 7.14168
head 14.1396 -5.98763 2.54107
rclavicle -1.0635e-014 -3.02153e-014
rhumerus -51.2453 -48.8922 -37.5748
rradius 18.8689
rwrist 12.5102
rhand -15.2268 -43.2406
rfingers 7.12502
rthumb 10.946 -72.9352
lclavicle -1.0635e-014 -3.02153e-014
lhumerus -34.234 27.171 67.4837
lradius 29.4482
lwrist -15.0021
lhand -16.9343 25.1137
lfingers 7.12502
lthumb 9.29877 54.8886
rfemur -24.7229 -3.07037 20.1575
rtibia 63.306
rfoot 7.51011 -3.215
rtoes 7.83575
lfemur -18.9397 -7.30645 -14.8894
ltibia 24.1716
lfoot -7.97237 6.58878
ltoes -1.69663
648
root -32.7226 17.8798 5.20851 533.012 -81.6386 -526.83
lowerback 0.705514 -0.223115 0.247553
upperback 0.681182 -0.346239 3.16575
thorax 0.320751 -0.198652 3.11151
lowerneck -11.7072 -6.99573 -9.70128
upperneck 32.3542 -11.7161 7.10006
head 13.9775 -5.85633 2.54486
rclavicle -1.27222e-014 -1.90833e-014
rhumerus -51.2231 -49.4668 -37.4147
rradius 18.778
rwrist 12.268
rhand -15.1777 -43.8993
rfingers 7.12502
rthumb 10.9934 -73.5914
lclavicle -1.27222e-014 -1.90833e-014
lhumerus -33.4304 26.3754 68.2917
lradius 29.7534
lwrist -14.8464
lhand -16.8769 25.0486
lfingers 7.12502
lthumb 9.35413 54.821
rfemur -25.6324 -3.38305 19.8597
rtibia 63.7416
rfoot 7.44779 -3.82685
rtoes 7.87362
lfemur -18.199 -7.31364 -15.3017
ltibia 23.8676
lfoot -8.23709 6.48604
ltoes -1.82694
